<?xml version="1.0" encoding="UTF-8" standalone="no"?>
<svg width="150px" height="305px" viewBox="0 0 150 305" version="1.1" xmlns="http://www.w3.org/2000/svg" xmlns:xlink="http://www.w3.org/1999/xlink" xmlns:sketch="http://www.bohemiancoding.com/sketch/ns">
    <title>chemino 1@2x</title>
    <description>Created with Sketch (http://www.bohemiancoding.com/sketch)</description>
    <defs></defs>
    <g id="Page-1" stroke="none" stroke-width="1" fill="none" fill-rule="evenodd" sketch:type="MSPage">
        <g id="titre" sketch:type="MSArtboardGroup" transform="translate(-65.000000, -274.000000)">
            <rect id="Rectangle-33" fill="#2F8EDD" sketch:type="MSShapeGroup" x="0" y="0" width="640" height="1136"></rect>
            <g id="Group" sketch:type="MSLayerGroup" transform="translate(112.000000, 128.000000)"></g>
            <g id="Group" sketch:type="MSLayerGroup" transform="translate(65.000000, 274.000000)">
                <g id="train" sketch:type="MSShapeGroup">
                    <path d="M81.2964793,26.7594108 L68.7035207,26.7594108 L68.7035207,26.7594108 L59.0652674,10.0654664 L90.9347326,10.0654664 L81.2964793,26.7594108 Z M90.0842984,26.7594108 L110.711754,26.7594108 C132.407383,26.7594108 150,44.3451386 150,66.0382331 L150,175.532962 C150,197.225895 132.410053,214.811784 110.711754,214.811784 L39.2882458,214.811784 C17.592617,214.811784 0,197.226056 0,175.532962 L0,66.0382331 C0,44.3452998 17.5899468,26.7594108 39.2882458,26.7594108 L59.9157016,26.7594108 L50.2774483,10.0654664 L38.9151083,10.0654664 C36.1320432,10.0654664 33.8788871,7.81223503 33.8788871,5.03273322 C33.8788871,2.25888714 36.1336801,0 38.9151083,0 L111.084892,0 C113.867957,0 116.121113,2.25323141 116.121113,5.03273322 C116.121113,7.80657931 113.86632,10.0654664 111.084892,10.0654664 L99.7225517,10.0654664 L90.0842984,26.7594108 Z" id="Rectangle-1" fill="#FFFFFF"></path>
                    <rect id="Rectangle-2" fill="#2F8EDD" x="8.83797054" y="65.5482815" width="132.324059" height="88.1342062" rx="24.5499182"></rect>
                    <rect id="Rectangle-6" fill="#2F8EDD" x="43.6988543" y="37.806874" width="62.8477905" height="18.4124386" rx="9.81996727"></rect>
                    <circle id="Oval-1" fill="#2F8EDD" cx="29.2144026" cy="182.160393" r="14.4844517"></circle>
                    <path d="M120.785597,196.644845 C128.78514,196.644845 135.270049,190.159935 135.270049,182.160393 C135.270049,174.160851 128.78514,167.675941 120.785597,167.675941 C112.786055,167.675941 106.301146,174.160851 106.301146,182.160393 C106.301146,190.159935 112.786055,196.644845 120.785597,196.644845 Z" id="Oval-1" fill="#2F8EDD"></path>
                </g>
                <g id="raille" transform="translate(2.000000, 221.000000)" fill="#FFFFFF" sketch:type="MSShapeGroup">
                    <rect id="Rectangle-7" transform="translate(21.813421, 42.666121) rotate(20.000000) translate(-21.813421, -42.666121) " x="14.4484452" y="-0.296235679" width="14.7299509" height="85.9247136" rx="24.549999"></rect>
                    <rect id="Rectangle-7" transform="translate(123.941080, 42.666121) rotate(-20.000000) translate(-123.941080, -42.666121) " x="116.576105" y="-0.296235679" width="14.7299509" height="85.9247136" rx="24.5499182"></rect>
                </g>
                <path d="M37.405892,276.677578 L32.405892,289.443535 L117.348609,289.443535 L112.348609,276.677578 L37.405892,276.677578 Z" id="Rectangle-9" fill="#FFFFFF" sketch:type="MSShapeGroup"></path>
                <path d="M47.2258592,244.762684 L44.2258592,253.528642 L105.01964,253.528642 L102.01964,244.762684 L47.2258592,244.762684 Z" id="Rectangle-9" opacity="0.553196023" fill="#FFFFFF" sketch:type="MSShapeGroup"></path>
            </g>
        </g>
        <g id="Artboard-1" sketch:type="MSArtboardGroup" transform="translate(-65.000000, 82.000000)"></g>
    </g>
</svg>